<?xml version="1.0" standalone="no"?>
<!DOCTYPE svg PUBLIC "-//W3C//DTD SVG 20010904//EN"
        "http://www.w3.org/TR/2001/REC-SVG-20010904/DTD/svg10.dtd">
<svg version="1.0" xmlns="http://www.w3.org/2000/svg"
     width="700.000000pt" height="700.000000pt" viewBox="0 0 700.000000 700.000000"
     preserveAspectRatio="xMidYMid meet">
    <metadata>
        Created by potrace 1.14, written by Peter Selinger 2001-2017
    </metadata>
    <g transform="translate(0.000000,700.000000) scale(0.100000,-0.100000)"
       fill="#000000" stroke="none">
        <path d="M3255 6988 c-1502 -100 -2778 -1165 -3144 -2624 -76 -304 -104 -536
-104 -864 0 -328 28 -560 104 -864 311 -1240 1287 -2214 2526 -2525 307 -76
532 -104 858 -104 270 0 447 16 692 64 1153 225 2126 1034 2561 2129 168 423
246 836 245 1305 -1 701 -189 1337 -568 1915 -693 1058 -1896 1654 -3170 1568z
m-70 -1523 c14 -13 25 -30 25 -37 0 -7 -27 -137 -59 -288 -33 -151 -184 -851
-336 -1555 -218 -1009 -281 -1284 -296 -1300 -19 -20 -35 -20 -662 -23 -353
-1 -652 0 -664 3 -30 7 -63 44 -63 70 0 25 -59 -70 1079 1745 474 756 871
1383 882 1393 30 24 66 21 94 -8z m719 3 c13 -13 381 -592 817 -1288 435 -696
870 -1389 965 -1541 101 -160 174 -286 174 -300 0 -14 -7 -35 -16 -47 l-15
-22 -668 0 c-657 0 -668 0 -686 20 -14 15 -106 425 -352 1562 -183 849 -333
1555 -333 1570 0 29 40 68 71 68 10 0 29 -10 43 -22z m-568 -1369 c18 -21 19
-56 19 -1279 0 -1223 -1 -1258 -19 -1279 -24 -26 -76 -28 -104 -3 -26 23 -427
552 -435 575 -7 18 405 1944 423 1977 19 36 87 41 116 9z m428 2 c11 -12 75
-290 201 -872 102 -470 197 -910 212 -977 26 -120 26 -125 9 -155 -10 -18
-110 -153 -224 -302 -199 -260 -208 -270 -244 -273 -27 -2 -41 2 -57 19 l-21
23 0 1258 c0 1245 0 1258 20 1278 26 26 81 26 104 1z"/>
    </g>
</svg>
