<svg width="256" height="256" viewBox="0 0 256 256" fill="none" xmlns="http://www.w3.org/2000/svg">
    <g clip-path="url(#clip0_54_2)">
        <rect width="256" height="256" rx="128" fill="#2B2242"/>
        <g opacity="0.07">
            <path d="M172.137 -59.5334C167.594 -66.7787 156.396 -62.2208 158.204 -53.862L227.481 266.44C228.241 269.954 231.35 272.462 234.945 272.462H366.537C372.541 272.462 376.197 265.854 373.007 260.768L172.137 -59.5334Z"
                  fill="#C3AEFF"/>
            <path d="M142.737 342.642C142.737 349.952 152.019 353.085 156.448 347.269L199.506 290.733C200.858 288.957 201.366 286.677 200.895 284.494L157.838 85.1232C155.905 76.1767 142.737 77.5824 142.737 86.7352L142.737 342.642Z"
                  fill="#DCCFFF"/>
            <path d="M83.6485 -59.5334C88.1922 -66.7787 99.39 -62.2208 97.5821 -53.862L28.3046 266.44C27.5445 269.954 24.4361 272.462 20.8406 272.462H-110.752C-116.755 272.462 -120.411 265.854 -117.221 260.768L83.6485 -59.5334Z"
                  fill="#F5F5F5"/>
            <path d="M113.049 342.642C113.049 349.952 103.767 353.085 99.3374 347.269L56.2804 290.733C54.9275 288.957 54.4199 286.677 54.8912 284.494L97.9483 85.1232C99.8804 76.1767 113.049 77.5824 113.049 86.7352V342.642Z"
                  fill="#F5F5F5"/>
        </g>
        <path d="M143.434 56.523C141.838 53.9771 137.905 55.5787 138.54 58.5159L162.872 171.068C163.139 172.303 164.231 173.184 165.494 173.184H211.714C213.822 173.184 215.106 170.862 213.986 169.075L143.434 56.523Z"
              fill="#C3AEFF"/>
        <path d="M133.107 197.845C133.107 200.414 136.367 201.514 137.923 199.471L153.046 179.604C153.521 178.98 153.7 178.179 153.534 177.412L138.411 107.354C137.732 104.211 133.107 104.705 133.107 107.921L133.107 197.845Z"
              fill="#DCCFFF"/>
        <path d="M112.353 56.523C113.949 53.9771 117.882 55.5787 117.247 58.5159L92.9145 171.068C92.6476 172.303 91.5558 173.184 90.2929 173.184H44.0732C41.9647 173.184 40.6806 170.862 41.8009 169.075L112.353 56.523Z"
              fill="#F5F5F5"/>
        <path d="M122.68 197.845C122.68 200.414 119.419 201.514 117.864 199.471L102.741 179.604C102.265 178.98 102.087 178.179 102.253 177.412L117.376 107.354C118.054 104.211 122.68 104.705 122.68 107.921V197.845Z"
              fill="#F5F5F5"/>
    </g>
    <defs>
        <clipPath id="clip0_54_2">
            <rect width="256" height="256" rx="128" fill="white"/>
        </clipPath>
    </defs>
</svg>
